<mxfile host="app.diagrams.net" modified="2020-06-29T12:44:20.381Z" agent="5.0 (Macintosh; Intel Mac OS X 10_15_5) AppleWebKit/537.36 (KHTML, like Gecko) Chrome/83.0.4103.106 Safari/537.36" etag="p5k3B_yTYeZub8R3WDa8" version="13.3.0" type="github">
  <diagram id="SQY7LfDQDoFfCMlvnJfe" name="Page-1">
    <mxGraphModel dx="815" dy="506" grid="1" gridSize="10" guides="1" tooltips="1" connect="1" arrows="1" fold="1" page="1" pageScale="1" pageWidth="827" pageHeight="1169" math="0" shadow="0">
      <root>
        <mxCell id="0" />
        <mxCell id="1" parent="0" />
        <mxCell id="mFUGHH9T0EGc5yDTJ0u0-8" style="edgeStyle=orthogonalEdgeStyle;rounded=0;orthogonalLoop=1;jettySize=auto;html=1;" edge="1" parent="1" source="mFUGHH9T0EGc5yDTJ0u0-1" target="mFUGHH9T0EGc5yDTJ0u0-4">
          <mxGeometry relative="1" as="geometry" />
        </mxCell>
        <mxCell id="mFUGHH9T0EGc5yDTJ0u0-1" value="1.1 用户反馈" style="rounded=0;whiteSpace=wrap;html=1;fillColor=#f5f5f5;strokeColor=#666666;fontColor=#333333;" vertex="1" parent="1">
          <mxGeometry x="140" y="130" width="120" height="60" as="geometry" />
        </mxCell>
        <mxCell id="mFUGHH9T0EGc5yDTJ0u0-5" value="" style="edgeStyle=orthogonalEdgeStyle;rounded=0;orthogonalLoop=1;jettySize=auto;html=1;" edge="1" parent="1" source="mFUGHH9T0EGc5yDTJ0u0-2" target="mFUGHH9T0EGc5yDTJ0u0-4">
          <mxGeometry relative="1" as="geometry" />
        </mxCell>
        <mxCell id="mFUGHH9T0EGc5yDTJ0u0-2" value="1.2 测试问题" style="rounded=0;whiteSpace=wrap;html=1;fillColor=#f5f5f5;strokeColor=#666666;fontColor=#333333;" vertex="1" parent="1">
          <mxGeometry x="140" y="220" width="120" height="60" as="geometry" />
        </mxCell>
        <mxCell id="mFUGHH9T0EGc5yDTJ0u0-11" value="" style="edgeStyle=orthogonalEdgeStyle;rounded=0;orthogonalLoop=1;jettySize=auto;html=1;" edge="1" parent="1" source="mFUGHH9T0EGc5yDTJ0u0-4" target="mFUGHH9T0EGc5yDTJ0u0-10">
          <mxGeometry relative="1" as="geometry" />
        </mxCell>
        <mxCell id="mFUGHH9T0EGc5yDTJ0u0-4" value="2.1 整理成Case或需求Feature" style="rounded=0;whiteSpace=wrap;html=1;fillColor=#d5e8d4;strokeColor=#82b366;" vertex="1" parent="1">
          <mxGeometry x="340" y="220" width="120" height="60" as="geometry" />
        </mxCell>
        <mxCell id="mFUGHH9T0EGc5yDTJ0u0-17" value="" style="edgeStyle=orthogonalEdgeStyle;rounded=0;orthogonalLoop=1;jettySize=auto;html=1;" edge="1" parent="1" source="mFUGHH9T0EGc5yDTJ0u0-10" target="mFUGHH9T0EGc5yDTJ0u0-16">
          <mxGeometry relative="1" as="geometry" />
        </mxCell>
        <mxCell id="mFUGHH9T0EGc5yDTJ0u0-10" value="3.1 与AI团队沟通" style="rounded=0;whiteSpace=wrap;html=1;fillColor=#dae8fc;strokeColor=#6c8ebf;" vertex="1" parent="1">
          <mxGeometry x="540" y="220" width="120" height="60" as="geometry" />
        </mxCell>
        <mxCell id="mFUGHH9T0EGc5yDTJ0u0-19" value="" style="edgeStyle=orthogonalEdgeStyle;rounded=0;orthogonalLoop=1;jettySize=auto;html=1;" edge="1" parent="1" source="mFUGHH9T0EGc5yDTJ0u0-16" target="mFUGHH9T0EGc5yDTJ0u0-18">
          <mxGeometry relative="1" as="geometry" />
        </mxCell>
        <mxCell id="mFUGHH9T0EGc5yDTJ0u0-16" value="3.2 AI团队给出排期" style="rounded=0;whiteSpace=wrap;html=1;fillColor=#dae8fc;strokeColor=#6c8ebf;" vertex="1" parent="1">
          <mxGeometry x="540" y="360" width="120" height="60" as="geometry" />
        </mxCell>
        <mxCell id="mFUGHH9T0EGc5yDTJ0u0-23" value="" style="edgeStyle=orthogonalEdgeStyle;rounded=0;orthogonalLoop=1;jettySize=auto;html=1;" edge="1" parent="1" source="mFUGHH9T0EGc5yDTJ0u0-18" target="mFUGHH9T0EGc5yDTJ0u0-22">
          <mxGeometry relative="1" as="geometry" />
        </mxCell>
        <mxCell id="mFUGHH9T0EGc5yDTJ0u0-29" style="edgeStyle=orthogonalEdgeStyle;rounded=0;orthogonalLoop=1;jettySize=auto;html=1;entryX=0;entryY=0.5;entryDx=0;entryDy=0;" edge="1" parent="1" source="mFUGHH9T0EGc5yDTJ0u0-18" target="mFUGHH9T0EGc5yDTJ0u0-26">
          <mxGeometry relative="1" as="geometry" />
        </mxCell>
        <mxCell id="mFUGHH9T0EGc5yDTJ0u0-18" value="3.3 AI完成开发" style="rounded=0;whiteSpace=wrap;html=1;fillColor=#dae8fc;strokeColor=#6c8ebf;" vertex="1" parent="1">
          <mxGeometry x="540" y="500" width="120" height="60" as="geometry" />
        </mxCell>
        <mxCell id="mFUGHH9T0EGc5yDTJ0u0-22" value="4.1 合入紧急修复版本" style="rounded=0;whiteSpace=wrap;html=1;fillColor=#f8cecc;strokeColor=#b85450;" vertex="1" parent="1">
          <mxGeometry x="730" y="450" width="120" height="60" as="geometry" />
        </mxCell>
        <mxCell id="mFUGHH9T0EGc5yDTJ0u0-9" style="edgeStyle=orthogonalEdgeStyle;rounded=0;orthogonalLoop=1;jettySize=auto;html=1;entryX=0.5;entryY=1;entryDx=0;entryDy=0;" edge="1" parent="1" source="mFUGHH9T0EGc5yDTJ0u0-3" target="mFUGHH9T0EGc5yDTJ0u0-4">
          <mxGeometry relative="1" as="geometry" />
        </mxCell>
        <mxCell id="mFUGHH9T0EGc5yDTJ0u0-3" value="1.3 产品需求" style="rounded=0;whiteSpace=wrap;html=1;fillColor=#f5f5f5;strokeColor=#666666;fontColor=#333333;" vertex="1" parent="1">
          <mxGeometry x="140" y="310" width="120" height="60" as="geometry" />
        </mxCell>
        <mxCell id="mFUGHH9T0EGc5yDTJ0u0-26" value="4.2 合入正常迭代版本" style="rounded=0;whiteSpace=wrap;html=1;fillColor=#f8cecc;strokeColor=#b85450;" vertex="1" parent="1">
          <mxGeometry x="730" y="555" width="120" height="60" as="geometry" />
        </mxCell>
      </root>
    </mxGraphModel>
  </diagram>
</mxfile>
